<svg xmlns="http://www.w3.org/2000/svg"  viewBox="0 0 64 64" width="512px" height="512px"><radialGradient id="H~eUfY8tc9BcWj4p7Xovka" cx="32" cy="622" r="31.504" gradientTransform="matrix(1 0 0 -1 0 654)" gradientUnits="userSpaceOnUse"><stop offset="0" stop-color="#afeeff"/><stop offset=".193" stop-color="#bbf1ff"/><stop offset=".703" stop-color="#d7f8ff"/><stop offset="1" stop-color="#e1faff"/></radialGradient><path fill="url(#H~eUfY8tc9BcWj4p7Xovka)" d="M60.719,34H52c-1.1,0-2-0.9-2-2c0-1.1,0.9-2,2-2h7.385c1.67,0,3.195-1.122,3.537-2.757	C63.392,24.998,61.668,23,59.5,23H59c-1.105,0-2-0.895-2-2s0.895-2,2-2h1.5c2.168,0,3.892-1.998,3.422-4.243	C63.58,13.122,62.056,12,60.385,12H54c-1.105,0-2-0.895-2-2s0.895-2,2-2h1.385c1.67,0,3.195-1.122,3.537-2.757	C59.392,2.998,57.668,1,55.5,1H34.006H32.5h-25C5.575,1,4,2.575,4,4.5S5.575,8,7.5,8H9c1.105,0,2,0.895,2,2s-0.895,2-2,2H3.615	c-1.67,0-3.195,1.122-3.537,2.757C-0.392,17.002,1.332,19,3.5,19H5c1.1,0,2,0.9,2,2s-0.9,2-2,2H3.5C1.575,23,0,24.575,0,26.5	S1.575,30,3.5,30H13c1.1,0,2,0.9,2,2c0,1.1-0.9,2-2,2H4.614c-1.67,0-3.195,1.122-3.537,2.757C0.608,39.002,2.332,41,4.5,41H7	c1.105,0,2,0.895,2,2s-0.895,2-2,2H4.5c-2.168,0-3.892,1.998-3.422,4.243C1.42,50.878,2.945,52,4.615,52H12c1.105,0,2,0.895,2,2	s-0.895,2-2,2H8.615c-1.67,0-3.195,1.122-3.537,2.757C4.608,61.002,6.332,63,8.5,63h22.494H32.5h21c1.925,0,3.5-1.575,3.5-3.5	S55.425,56,53.5,56H52c-1.105,0-2-0.895-2-2s0.895-2,2-2h5.385c1.67,0,3.195-1.122,3.537-2.757C61.392,46.998,59.668,45,57.5,45H55	c-1.1,0-2-0.9-2-2s0.9-2,2-2h5.719C62.524,41,64,39.523,64,37.719v-0.438C64,35.476,62.524,34,60.719,34z"/><linearGradient id="H~eUfY8tc9BcWj4p7Xovkb" x1="43.185" x2="43.185" y1="41.653" y2="37.936" gradientUnits="userSpaceOnUse"><stop offset="0" stop-color="#f5cb63"/><stop offset=".076" stop-color="#f6cc6a"/><stop offset=".458" stop-color="#fdd088"/><stop offset=".672" stop-color="#ffd194"/><stop offset="1" stop-color="#ffd194"/></linearGradient><path fill="url(#H~eUfY8tc9BcWj4p7Xovkb)" d="M41.942,44.242v-6.214c0,0,2.486,1.243,2.486,6.214	C42.874,44.242,41.942,44.242,41.942,44.242z"/><linearGradient id="H~eUfY8tc9BcWj4p7Xovkc" x1="46.913" x2="46.913" y1="42.547" y2="39.319" gradientUnits="userSpaceOnUse"><stop offset="0" stop-color="#f5cb63"/><stop offset=".076" stop-color="#f6cc6a"/><stop offset=".458" stop-color="#fdd088"/><stop offset=".672" stop-color="#ffd194"/><stop offset="1" stop-color="#ffd194"/></linearGradient><path fill="url(#H~eUfY8tc9BcWj4p7Xovkc)" d="M45.67,45.485v-6.214c0,0,2.486,1.243,2.486,6.214C46.603,45.485,45.67,45.485,45.67,45.485z"/><linearGradient id="H~eUfY8tc9BcWj4p7Xovkd" x1="39.457" x2="39.457" y1="40.255" y2="36.136" gradientUnits="userSpaceOnUse"><stop offset="0" stop-color="#f5cb63"/><stop offset=".076" stop-color="#f6cc6a"/><stop offset=".458" stop-color="#fdd088"/><stop offset=".672" stop-color="#ffd194"/><stop offset="1" stop-color="#ffd194"/></linearGradient><path fill="url(#H~eUfY8tc9BcWj4p7Xovkd)" d="M38.214,42.91v-6.214c0,0,2.486,1.243,2.486,6.214C39.146,42.91,38.214,42.91,38.214,42.91z"/><linearGradient id="H~eUfY8tc9BcWj4p7Xovke" x1="35.728" x2="35.728" y1="38.532" y2="35.295" gradientUnits="userSpaceOnUse"><stop offset="0" stop-color="#f5cb63"/><stop offset=".076" stop-color="#f6cc6a"/><stop offset=".458" stop-color="#fdd088"/><stop offset=".672" stop-color="#ffd194"/><stop offset="1" stop-color="#ffd194"/></linearGradient><path fill="url(#H~eUfY8tc9BcWj4p7Xovke)" d="M34.486,42.114V35.9c0,0,2.486,1.243,2.486,6.214C35.418,42.114,34.486,42.114,34.486,42.114z"/><linearGradient id="H~eUfY8tc9BcWj4p7Xovkf" x1="50.336" x2="50.336" y1="43.234" y2="40.156" gradientUnits="userSpaceOnUse"><stop offset="0" stop-color="#f5cb63"/><stop offset=".076" stop-color="#f6cc6a"/><stop offset=".458" stop-color="#fdd088"/><stop offset=".672" stop-color="#ffd194"/><stop offset="1" stop-color="#ffd194"/></linearGradient><path fill="url(#H~eUfY8tc9BcWj4p7Xovkf)" d="M51.273,43.621c-0.736-1.911-1.874-2.486-1.874-2.486v2.486H51.273z"/><linearGradient id="H~eUfY8tc9BcWj4p7Xovkg" x1="46.913" x2="46.913" y1="30.553" y2="36.994" gradientUnits="userSpaceOnUse"><stop offset="0" stop-color="#f5cb63"/><stop offset=".076" stop-color="#f6cc6a"/><stop offset=".458" stop-color="#fdd088"/><stop offset=".672" stop-color="#ffd194"/><stop offset="1" stop-color="#ffd194"/></linearGradient><path fill="url(#H~eUfY8tc9BcWj4p7Xovkg)" d="M45.67,30.929v6.214c0,0,2.486-1.243,2.486-6.214C46.603,30.929,45.67,30.929,45.67,30.929z"/><linearGradient id="H~eUfY8tc9BcWj4p7Xovkh" x1="43.185" x2="43.185" y1="31.415" y2="35.983" gradientUnits="userSpaceOnUse"><stop offset="0" stop-color="#f5cb63"/><stop offset=".076" stop-color="#f6cc6a"/><stop offset=".458" stop-color="#fdd088"/><stop offset=".672" stop-color="#ffd194"/><stop offset="1" stop-color="#ffd194"/></linearGradient><path fill="url(#H~eUfY8tc9BcWj4p7Xovkh)" d="M41.942,29.686V35.9c0,0,2.486-1.243,2.486-6.214C42.874,29.686,41.942,29.686,41.942,29.686z"/><linearGradient id="H~eUfY8tc9BcWj4p7Xovki" x1="50.642" x2="50.642" y1="31.255" y2="36.219" gradientUnits="userSpaceOnUse"><stop offset="0" stop-color="#f5cb63"/><stop offset=".076" stop-color="#f6cc6a"/><stop offset=".458" stop-color="#fdd088"/><stop offset=".672" stop-color="#ffd194"/><stop offset="1" stop-color="#ffd194"/></linearGradient><path fill="url(#H~eUfY8tc9BcWj4p7Xovki)" d="M49.399,29.686V35.9c0,0,2.486-1.243,2.486-6.214C50.331,29.686,49.399,29.686,49.399,29.686z"/><linearGradient id="H~eUfY8tc9BcWj4p7Xovkj" x1="55.613" x2="55.613" y1="28.192" y2="32.888" gradientUnits="userSpaceOnUse"><stop offset="0" stop-color="#f5cb63"/><stop offset=".076" stop-color="#f6cc6a"/><stop offset=".458" stop-color="#fdd088"/><stop offset=".672" stop-color="#ffd194"/><stop offset="1" stop-color="#ffd194"/></linearGradient><path fill="url(#H~eUfY8tc9BcWj4p7Xovkj)" d="M54.37,25.958v6.214c0,0,2.486-1.243,2.486-6.214C55.302,25.958,54.37,25.958,54.37,25.958z"/><linearGradient id="H~eUfY8tc9BcWj4p7Xovkk" x1="39.457" x2="39.457" y1="30.968" y2="34.872" gradientUnits="userSpaceOnUse"><stop offset="0" stop-color="#f5cb63"/><stop offset=".076" stop-color="#f6cc6a"/><stop offset=".458" stop-color="#fdd088"/><stop offset=".672" stop-color="#ffd194"/><stop offset="1" stop-color="#ffd194"/></linearGradient><path fill="url(#H~eUfY8tc9BcWj4p7Xovkk)" d="M38.214,28.444v6.214c0,0,2.486-1.243,2.486-6.214	C39.146,28.444,38.214,28.444,38.214,28.444z"/><linearGradient id="H~eUfY8tc9BcWj4p7Xovkl" x1="35.728" x2="35.728" y1="30.298" y2="33.997" gradientUnits="userSpaceOnUse"><stop offset="0" stop-color="#f5cb63"/><stop offset=".076" stop-color="#f6cc6a"/><stop offset=".458" stop-color="#fdd088"/><stop offset=".672" stop-color="#ffd194"/><stop offset="1" stop-color="#ffd194"/></linearGradient><path fill="url(#H~eUfY8tc9BcWj4p7Xovkl)" d="M34.486,27.201v6.214c0,0,2.486-1.243,2.486-6.214	C35.418,27.201,34.486,27.201,34.486,27.201z"/><linearGradient id="H~eUfY8tc9BcWj4p7Xovkm" x1="35.107" x2="35.107" y1="56.785" y2="46.335" gradientUnits="userSpaceOnUse"><stop offset="0" stop-color="#42d778"/><stop offset=".996" stop-color="#34b171"/><stop offset="1" stop-color="#34b171"/></linearGradient><path fill="url(#H~eUfY8tc9BcWj4p7Xovkm)" d="M30.757,29.686c-3.728,0-4.971,3.728-8.699,3.728c3.728,2.486,17.958,9.246,28.633,9.905	c0.659,0.037,1.193,0.559,1.193,1.23v0.05c0,2.747-2.225,4.971-4.971,4.971l-9.942-1.243c-0.833,0-1.429,0.808-1.193,1.603	l1.081,3.635c0.497,1.603-0.696,3.219-2.374,3.219H13.358c-1.367,0-2.486-1.118-2.486-2.486V27.201	c0-4.971,1.243-9.942,5.269-11.496c0.957-3.405,4.076-5.903,7.78-5.903c2.287,0,4.35,0.957,5.816,2.486h17.175	c3.43,0,6.537,1.392,8.786,3.641s3.641,5.356,3.641,8.786c0,4.114-6.96,7.457-15.535,7.457	C35.728,32.172,32.621,29.686,30.757,29.686z"/><linearGradient id="H~eUfY8tc9BcWj4p7Xovkn" x1="21.811" x2="45.683" y1="9.656" y2="47.315" gradientUnits="userSpaceOnUse"><stop offset="0" stop-color="#62de8f"/><stop offset=".478" stop-color="#5dd18d"/><stop offset="1" stop-color="#56be89"/></linearGradient><path fill="url(#H~eUfY8tc9BcWj4p7Xovkn)" d="M30.757,29.686c-3.728,0-4.971,3.728-8.699,3.728c5.148,2.796,18.642,7.543,28.633,9.905	c0.659,0.037,1.193,0.559,1.193,1.23v0.05c0,2.747-2.225,4.971-4.971,4.971l-9.942-1.243c-4.152-0.445-7.715-0.989-11.652-1.785	c-2.741-0.554-14.446-0.7-14.446-8.157V27.201c0-4.971,1.243-9.942,5.269-11.496c0.957-3.405,4.076-5.903,7.78-5.903	c2.287,0,4.35,0.957,5.816,2.486h17.175c3.43,0,6.537,1.392,8.786,3.641s3.641,5.356,3.641,8.786c0,4.114-6.96,7.457-15.535,7.457	C35.728,32.172,32.621,29.686,30.757,29.686z"/><linearGradient id="H~eUfY8tc9BcWj4p7Xovko" x1="23.922" x2="23.922" y1="640.928" y2="628.154" gradientTransform="matrix(1 0 0 -1 0 654)" gradientUnits="userSpaceOnUse"><stop offset=".122" stop-color="#5e6d7b"/><stop offset=".191" stop-color="#5d6b79"/><stop offset="1" stop-color="#515c69"/></linearGradient><circle cx="23.922" cy="17.88" r="4.35" fill="url(#H~eUfY8tc9BcWj4p7Xovko)"/><linearGradient id="H~eUfY8tc9BcWj4p7Xovkp" x1="47.252" x2="56.877" y1="640.13" y2="630.506" gradientTransform="matrix(1 0 0 -1 0 654)" gradientUnits="userSpaceOnUse"><stop offset=".122" stop-color="#5e6d7b"/><stop offset=".191" stop-color="#5d6b79"/><stop offset="1" stop-color="#515c69"/></linearGradient><path fill="url(#H~eUfY8tc9BcWj4p7Xovkp)" d="M54.059,20.676c-0.686,0.686-2.217,0.268-3.418-0.932c-1.201-1.201-1.618-2.732-0.932-3.418	c0.686-0.686,2.217-0.268,3.418,0.932C54.328,18.459,54.745,19.99,54.059,20.676z"/><linearGradient id="H~eUfY8tc9BcWj4p7Xovkq" x1="23.921" x2="23.921" y1="15.767" y2="21.377" gradientUnits="userSpaceOnUse"><stop offset="0" stop-color="#ffc050"/><stop offset=".004" stop-color="#ffc050"/><stop offset=".641" stop-color="#ffbe75"/><stop offset="1" stop-color="#ffbd85"/><stop offset="1" stop-color="#ffbd85"/></linearGradient><ellipse cx="23.921" cy="17.885" fill="url(#H~eUfY8tc9BcWj4p7Xovkq)" rx="2.228" ry="1.865"/><linearGradient id="H~eUfY8tc9BcWj4p7Xovkr" x1="23.192" x2="26.149" y1="18.354" y2="18.354" gradientUnits="userSpaceOnUse"><stop offset=".122" stop-color="#5e6d7b"/><stop offset=".191" stop-color="#5d6b79"/><stop offset="1" stop-color="#515c69"/></linearGradient><ellipse cx="24.67" cy="18.354" fill="url(#H~eUfY8tc9BcWj4p7Xovkr)" rx="1.479" ry="1.396"/></svg>