<?xml version="1.0" encoding="UTF-8"?><svg version="1.1" id="Layer_1" xmlns="http://www.w3.org/2000/svg" xmlns:xlink="http://www.w3.org/1999/xlink" x="0px" y="0px" width="140px" height="255px" viewBox="0 0 140 255" enable-background="new 0 0 140 255" xml:space="preserve">
<rect x="5" y="4" fill="#BEDBFF" width="130" height="251"/>
<g>
	<polygon fill="#93C3FF" points="140,255 125,255 125,15 15,15 15,255 0,255 0,0 140,0 	"/>
</g>
<path fill="#FFFFFF" d="M81,68.11c0,4.167-0.89,7.357-2.67,9.57C76.55,79.893,73.947,81,70.52,81c-3.38,0-6-1.09-7.77-3.25
	c-1.77-2.16-2.71-5.28-2.75-9.33v-5.55c0-4.22,0.9-7.41,2.7-9.6c1.8-2.19,4.39-3.27,7.78-3.27s6,1.08,7.77,3.24s2.71,5.27,2.75,9.32
	L81,68.11L81,68.11z M74.83,62.01c0.131-1.884-0.231-3.769-1.05-5.47c-0.7-1.136-1.969-1.794-3.3-1.71
	c-1.287-0.084-2.518,0.541-3.21,1.63c-0.81,1.57-1.189,3.326-1.1,5.09v7.34c-0.126,1.885,0.217,3.771,1,5.49
	c0.672,1.184,1.962,1.879,3.32,1.79c1.327,0.099,2.593-0.569,3.26-1.72c0.763-1.647,1.107-3.458,1-5.27V62L74.83,62.01z"/>
<path fill="#FFFFFF" d="M103.49,69.12H107V74h-3.46v6.55h-6.06V74H84.65v-3.79l12.72-20h6.12V69.12z M90.68,69.12h6.75V58.43
	l-0.39,0.68L90.68,69.12z"/>
<path fill="#FFFFFF" d="M51,69.12h3.46V74H51v6.55h-6.06V74H32.12v-3.79l12.73-20H51V69.12L51,69.12z M38.19,69.12h6.75V58.43
	l-0.4,0.68L38.19,69.12z"/>
<rect x="100" y="135" fill="#4C6786" width="15" height="34"/>
<rect x="91" y="152" fill="#7F92A8" width="20" height="4"/>
<rect x="103" y="139" fill="#002652" width="9" height="9"/>
</svg>