<?xml version="1.0" encoding="UTF-8"?><svg version="1.1" id="Layer_1" xmlns="http://www.w3.org/2000/svg" xmlns:xlink="http://www.w3.org/1999/xlink" x="0px" y="0px" width="173.01px" height="377.843px" viewBox="0 0 173.01 377.843" enable-background="new 0 0 173.01 377.843" xml:space="preserve">
<g>
	<path fill="#002652" d="M55.993,38.084l-9.624,7.967c-1.379,1.141-1.61,3.168-0.523,4.591l7.568,9.901l1.179-12.349l2.424-8.485
		L55.993,38.084z"/>
	<path fill="#013B84" d="M39.921,202.773l83.327,0.448l-5.253-60.451c-0.172-1.983-0.64-3.929-1.386-5.774l-6.873-16.979V70.472
		H39.921V202.773z"/>
	<path fill="#013B84" d="M23.586,73.83l1.837-5.904c1.502-4.828,5.336-8.575,10.197-9.965l34.35-9.827l28.726-3.124
		c9.917-1.078,18.104,7.643,16.402,17.472l-3.979,22.972l-17.45,8.051l-58.056-2.56C26.962,90.563,21.013,82.098,23.586,73.83z"/>
	<path fill="#1A4E90" d="M47.105,54.744l3.683,20.814l6.209,1.08l-3.779,4.859l27.329,33.925c1.59,1.974,4.759,1.209,5.274-1.273
		l7.889-38.051l-4.859-3.239l5.129-3.239l-4.589-23.485l-20.786,1.89L47.105,54.744z"/>
	<path fill="#D4E7FF" d="M81.084,113.787L55.663,53.023l13.731-6.74l13.756,1.255l-0.143,65.864
		C83.005,114.494,81.505,114.793,81.084,113.787z"/>
	<g>
		<path fill="#002652" d="M73.112,94.718l-1.249-2.895c0,0,1.021-14.231,0.76-23.966l1.499-0.04
			C74.48,81.101,73.126,94.585,73.112,94.718z"/>
	</g>
	<path fill="#BFC9D4" d="M76.809,61.901l-1.886-1.886c-1.238-1.252-3.256-1.263-4.507-0.025c-0.008,0.008-0.017,0.017-0.025,0.025
		l0,0l-1.886,1.886c-1.257,1.261-1.257,3.301,0,4.561l1.886,1.886c1.261,1.257,3.301,1.257,4.561,0l1.886-1.886
		C78.078,65.191,78.065,63.157,76.809,61.901z"/>
	<circle fill="#002652" cx="72.642" cy="64.182" r="2.193"/>
	<g>
		<path fill="#013B84" d="M60.593,283.209l-4.041,35.45l-1.378,12.077l-2.359,17.628l-0.234,5.075l-0.029,0.271
			c0,0,3.242,0.089,6.999,0.194c1.656,0.048,3.412,0.097,5.03,0.149c0.917,0.024,1.783,0.053,2.571,0.077
			c2.019,0.061,3.475,0.113,3.659,0.129l0.172-0.586l0.489-1.661l9.025,2.543l0.446-10.493l16.734-65.085l7.539-41.107
			l-26.939-0.812l-15.824,39.573C61.467,278.836,60.839,281.059,60.593,283.209z"/>
	</g>
	<g>
		<path fill="#013B84" d="M60.693,272.685c0.06,2.3-0.22,4.73-0.84,7.2l-10.73,80.877l-25.73,0.025l0.27-9.232l0.209-63.561
			c0.014-4.186,0.512-8.355,1.484-12.426l8.307-34.793l25.91-9.39L60.693,272.685z"/>
	</g>
	<g>
		<path fill="#013B84" d="M115.687,146.901l4.297,20.424l-16.666,86.646c-1.195,6.215-7.662,9.89-13.613,7.734
			c-7.664-2.777-16.389-6.006-16.363-6.301l3.82-107.39L115.687,146.901z"/>
	</g>
	<g>
		<path fill="#013B84" d="M87.331,139.877l4.781,14.254l-8.644,20.427l-25.804,91.997c0,0-29.171,0.803-29.105,0.243l13.781-114.321
			L87.331,139.877z"/>
	</g>
	<g>
		<path fill="#29ABE2" d="M22.639,356.537v0.004C22.613,356.541,22.617,356.537,22.639,356.537z"/>
	</g>
	<rect x="52.353" y="354.653" fill="#002652" width="15.317" height="6.5"/>
	<path fill="#002652" d="M55.301,358.739l11.554,0.075L75.857,361h24.146c1.506,0,2.454-1.624,1.713-2.935l-1.457-2.577
		c-1.271-2.249-3.447-3.843-5.974-4.378L77.8,347.622l-24.616-2.56l-1.778,8.892C50.912,356.42,52.788,358.723,55.301,358.739z"/>
	<polygon fill="#013B84" points="95.616,76.817 120.242,115.797 131.929,120.158 139.787,110.626 113.552,56.881 	"/>
	<path fill="#013B84" d="M138.546,129.868l-16.835-9.285c-2.428-1.339-3.95-3.879-3.987-6.651l-0.096-7.163l9.6-6.277
		c3.721-2.433,8.679-1.653,11.474,1.804l12.832,15.874l-5.392,9.545C144.628,130.393,141.24,131.354,138.546,129.868z"/>
	<path fill="#013B84" d="M28.233,71.263c-2.431-0.224-4.611,1.495-4.96,3.91l-5.685,39.303l-0.552,4.086
		c-0.553,4.093,1.644,8.064,5.404,9.771l9.95,4.516L45.92,72.894L28.233,71.263z"/>
	<g>
		<path fill="#002652" d="M33.074,351.923h5.222c4.418,0,8,3.582,8,8v3.017H25.599v-3.541
			C25.599,355.27,28.946,351.923,33.074,351.923z"/>
		<path fill="#002652" d="M25.393,377.843h21.206c3.148,0,3.515-5.544,1.512-10.627l-1.753-4.448H25.635l-1.753,4.448
			C21.878,372.298,22.245,377.843,25.393,377.843z"/>
		<path fill="#193B63" d="M27.687,371.819h16.145c2.397,0,2.676-3.323,1.151-6.368l-1.335-2.665H27.871l-1.335,2.665
			C25.011,368.497,25.29,371.819,27.687,371.819z"/>
	</g>
	<polygon fill="#002652" points="79.434,343.113 85.412,349.611 72.936,349.611 72.677,343.113 	"/>
	<path fill="#193B63" d="M84.762,349.221h-9.487l9.933,2.649c2.454,0.655,5.007,0.86,7.534,0.608h0
		c0.921-0.092,0.99-1.41,0.083-1.596L84.762,349.221z"/>
	<g>
		<path fill="#ED956E" d="M172.995,121.363c-0.284,0.889-1.266,1.513-2.412,1.442l-17.266-2.467l-1.722-5.487l20.936,5.798
			c0.322,0.064,0.532,0.377,0.468,0.699C172.998,121.354,172.997,121.359,172.995,121.363z"/>
		<path fill="#ED956E" d="M170.249,123.238c-0.126,0.924-0.987,1.709-2.128,1.836l-17.433,0.546l-2.642-5.108l21.622,2.103
			c0.328,0.007,0.589,0.28,0.581,0.608C170.25,123.228,170.25,123.233,170.249,123.238z"/>
		<path fill="#ED956E" d="M167.195,125.002c-0.153,0.92-1.037,1.679-2.181,1.772l-17.442,0.032l-2.49-5.184l21.55,2.739
			c0.328,0.017,0.58,0.297,0.563,0.625C167.195,124.992,167.195,124.997,167.195,125.002z"/>
		<path fill="#ED956E" d="M161.119,127.303c-0.153,0.92-1.037,1.679-2.181,1.772l-12.874,0.024
			c-2.791,0.005-5.337-1.593-6.545-4.109l-0.512-1.067l21.55,2.739c0.328,0.017,0.58,0.297,0.563,0.625
			C161.12,127.293,161.12,127.298,161.119,127.303z"/>
		<path fill="#ED956E" d="M144.185,128.834l4.862-7.779c0.876-3.031-0.887-6.228-3.918-7.104l-4.61-1.332
			c-3.031-0.876-10.633,0.691-11.509,3.722l7.106,8.228c0.853,0.988,1.929,1.76,3.138,2.254L144.185,128.834z"/>
		<path fill="#ED956E" d="M135.447,113.499l13.983,4.042l-1.049-0.364c-0.1-0.036-0.197-0.078-0.292-0.131
			c-0.977-0.527-1.341-1.748-0.817-2.725l0.007-0.037c0.333-0.61,0.914-1.05,1.594-1.201l3.255-0.71
			c0.823-0.17,1.59-0.563,2.209-1.133c0.411-0.403,0.741-0.869,0.879-1.347c0.074-0.256,0.095-0.512,0.045-0.768
			c-0.008-0.034-0.016-0.068-0.028-0.1c-0.151-0.413-0.607-0.626-1.02-0.476l-9.922,2.561l-2.443,0.075
			c-1.499,0.039-2.966,0.435-4.282,1.155l-1.977,1.09C135.542,113.455,135.496,113.478,135.447,113.499z"/>
		<path fill="#ED956E" d="M136.454,113.085l14.788,4.274l-1.109-0.384c-0.105-0.038-0.209-0.083-0.309-0.138
			c-1.033-0.558-1.418-1.848-0.864-2.882l0.008-0.039c0.352-0.646,0.967-1.11,1.685-1.27l3.443-0.751
			c0.871-0.18,1.682-0.595,2.337-1.198c0.435-0.426,0.784-0.919,0.93-1.425c0.078-0.27,0.1-0.542,0.047-0.813
			c-0.008-0.036-0.017-0.072-0.029-0.106c-0.159-0.437-0.642-0.663-1.079-0.503l-10.494,2.708l-2.584,0.079
			c-1.585,0.041-3.137,0.46-4.529,1.222l-2.091,1.153C136.554,113.039,136.506,113.063,136.454,113.085z"/>
		
			<ellipse transform="matrix(-0.2777 0.9607 -0.9607 -0.2777 301.5454 13.1515)" fill="#ED956E" cx="145.828" cy="119.941" rx="8.454" ry="9.139"/>
	</g>
	<path fill="#2888FF" d="M58.479,119.811l-14.62,1.944l-8.772,18.523c0,0-11.213,53.114-12.178,62.383
		c-0.877,8.275-2.134,34.883-2.398,40.409c-0.049,0.629,0.31,1.218,0.892,1.462l29.766,12.705l-2.924-111.11l-4.386-14.62
		L58.479,119.811z"/>
	<path fill="#3D94FF" d="M38.742,127.851c0,0,6.228,45.541,5.453,67.646c-0.921,26.637,1.623,62.558,2.134,69.371
		c0.06,0.792,0.44,1.526,1.053,2.032c3.398,2.439,7.516,3.669,11.696,3.494c3.231,0.191,6.465-0.308,9.488-1.462
		c1.159-0.478,1.841-1.685,1.652-2.924c-0.819-10.234-4.24-57.017-4.24-80.409c0-26.316,2.836-55.19,2.836-55.19
		s-3.509-9.795-12.061-9.795S38.742,127.851,38.742,127.851z"/>
	<path fill="#53A0FF" d="M59.473,126.521c6.462,9.956,1.096,50.57,5.746,58.976c0,0,15.19-0.892,15.19-5.746
		c-0.087-2.028-0.584-4.018-1.462-5.848l1.462-2.924C70.877,157.091,75.336,134.562,59.473,126.521z"/>
	<path fill="#68ABFF" d="M87.719,171.535c-0.819-7.924-5.965-17.398-10.234-28.947c-3.114-8.479-9.474-20.205-16.082-27.164
		c-2.398-2.515-7.31-5.848-11.696-5.848c-2.924,0-5.848-1.462-10.234-1.462c-11.696,0-18.582,9.708-19.971,15.088
		c-5.205,20.219-9.269,49.239-9.269,49.239S0,178.29,0,182.676s2.719,11.842,5.979,14.05s2.12-0.643,5.234,1.213
		c5.094,2.689,10.809,3.98,16.564,3.743c5.957-0.136,11.864-1.121,17.544-2.924l-4.386-11.696l5.848-3.099
		c0,0-2.924-30.804-2.924-49.897c0-6.14,5.307-15.526,14.035-9.269c0.64,0.435,1.179,1.004,1.579,1.667
		c15.862,8.041,9.941,33.494,19.474,47.383C82.558,173.904,87.719,173.173,87.719,171.535z"/>
	<path fill="#FFFFFF" d="M57.017,131.872v-12.061c3.655,2.383,11.155,1.577,16.812,1.577c-1.213,4.927-3.655,23.276-3.655,23.276
		l-8.918-0.526L57.017,131.872z"/>
	<path fill="#ED956E" d="M61.403,128.48c0.965,0.877,3.611,3.32,3.611,3.32l-2.183-0.066c1.101,1.108,1.529,2.717,1.126,4.225
		l-1.301,5.058c-0.375,1.345-1.369,2.431-2.675,2.924c1.317,1.07,2.367,2.147,1.233,3.281c-0.956,0.381-2.014,0.423-2.997,0.117
		l-7.222-2.208c0,0-4.21-1.053-4.21-7.661s3.801-10.395,7.471-10.395C58.581,127.12,60.073,127.267,61.403,128.48z"/>
	<path fill="#53A0FF" d="M30.702,118.349c0,0-5.058,1.462-9.137,19.605c-3.406,15.161-4.02,39.59-4.02,39.59v4.605
		c-0.135,0.713,0.047,1.449,0.497,2.018l1.184,1.184c0.288,0.283,0.751,0.278,1.034-0.01c0.135-0.138,0.21-0.323,0.209-0.516v-5.248
		c0,0,0.19-25.424,3.289-41.652C27.09,120.483,30.702,118.349,30.702,118.349z"/>
	<path fill="#53A0FF" d="M39.473,115.425c0,0-8.07,5.219-9.722,24.971c-2.222,26.637-6.403,30.395-4.386,31.403
		c2.018,1.009,4.912,1.842,6.33-5.848c1.067-5.848,0.614-11.696,1.272-25.526C33.421,130.468,35.307,122.398,39.473,115.425z"/>
	<path fill="#013B84" d="M139.268,114.637l-2.049,3.879c-1.568,2.968-0.481,6.645,2.447,8.286l2.5,1.4l-2.174,2.33l-12.58-7.144
		l-0.466-12.114l11.493-6.989l8.387,6.678v0C143.775,110.408,140.717,111.895,139.268,114.637z"/>
	<path opacity="0.1" fill="#002652" d="M61.403,128.48c0.965,0.877,3.611,3.394,3.611,3.394l-2.342,0.415
		c1.101,1.108,1.529,2.717,1.126,4.225l-1.301,5.058c-0.375,1.345-1.369,2.431-2.675,2.924c1.288,0.739,2.426,1.514,1.429,2.723
		c-0.956,0.381-2.052,0.426-3.035,0.12l-7.222-2.208c0,0-4.21-1.053-4.21-7.661s3.801-10.395,7.471-10.395
		C58.581,127.12,60.073,127.267,61.403,128.48z"/>
	<g>
		<path fill="#ED956E" d="M71.516,138.142c-0.004,0.007-0.007,0.015-0.015,0.019c-0.801,0.85-2.408,1.217-3.673,0.524l-9.26-6.309
			c-0.318-0.207-0.51-0.561-0.51-0.941v-1.375c0-1.034,0.838-1.872,1.872-1.872h0.537c0.267,0,0.525,0.095,0.728,0.268l10.156,8.653
			C71.684,137.349,71.755,137.813,71.516,138.142z"/>
		<path fill="#ED956E" d="M70.258,141.556c-0.003,0.008-0.007,0.015-0.014,0.02c-0.746,0.898-2.147,1.35-3.454,0.738l-9.816-5.702
			c-0.331-0.187-0.544-0.528-0.568-0.907l-0.086-1.373c-0.065-1.032,0.719-1.921,1.751-1.985l0.536-0.034
			c0.266-0.017,0.53,0.062,0.744,0.222l10.253,7.335C69.952,140.088,70.477,141.212,70.258,141.556z"/>
		<path fill="#ED956E" d="M68.519,144.158c-0.002,0.008-0.005,0.015-0.011,0.02c-0.607,0.915-2.285,1.537-3.568,1.097l-9.342-4.398
			c-0.328-0.141-0.562-0.439-0.623-0.791l-0.219-1.275c-0.165-0.958,0.479-1.869,1.437-2.033l0.498-0.086
			c0.247-0.043,0.502,0.004,0.718,0.133l10.492,6.007C68.249,143,68.689,143.814,68.519,144.158z"/>
		<path fill="#ED956E" d="M66.308,146.287c-0.001,0.007-0.002,0.014-0.007,0.019c-0.443,0.911-1.577,1.449-2.804,1.204l-7.931-2.06
			c-0.317-0.089-0.568-0.332-0.666-0.647l-0.356-1.138c-0.268-0.856,0.209-1.766,1.064-2.034l0.445-0.139
			c0.221-0.069,0.459-0.057,0.672,0.033l9.18,3.949C66.242,145.586,66.421,145.952,66.308,146.287z"/>
	</g>
	<polygon fill="#E9F3FF" points="71.45,57.885 64.985,66.776 58.161,58.994 55.193,52.233 69.394,46.283 83.156,46.655 
		83.135,54.382 81.149,64.351 	"/>
	<path fill="#002652" d="M66.776,1.665l-8.835,0.383C50.508,2.371,43.84,13.621,44.163,21.055c0,0,2.333,6.5,3.096,10.426
		c1.519,7.825,6.262,11.599,12.566,12.671L74.2,46.936L72.462,6.879C72.332,3.869,69.786,1.535,66.776,1.665z"/>
	<path fill="#ED956E" d="M58.919,34.138l26.58,4.025l-3.636,9.862l-8.341,9.341c-0.99,1.109-2.643,1.325-3.885,0.509l-10.819-7.107
		L58.919,34.138z"/>
	<path fill="#ED956E" d="M62.752,31.901l24.315-3.511c0.502-0.072,0.963,0.287,1.015,0.792l1.08,10.504
		c0.226,2.198-1.372,4.162-3.57,4.388l-0.69,0.071l-21.286-3.84L62.752,31.901z"/>
	<path fill="#ED956E" d="M54.956,8.062l17.264-1.775c4.697-0.483,9.097,2.369,10.575,6.853l1.772,5.379
		c0.146,0.443-0.06,1.897,0.346,3.348c0.144,0.517,2.285,2.951,2.438,3.438l0.733,3.886l-30.67,3.992L54.956,8.062z"/>
	<path fill="#002652" d="M65.928,29.926l-0.46-10.635c-0.221-5.115,3.746-9.441,8.861-9.662l6.213-0.269v0
		C80.292,3.584,75.113-0.717,69.388,0.1l-9.36,1.335C47.927,2.644,43.91,16.51,44.663,23.055l3.017,5.58l12.766-0.552l2.678,2.987
		C64.132,32.194,65.994,31.435,65.928,29.926z"/>
	<path opacity="0.1" fill="#002652" d="M79.325,21.282l-5.793,1.778l-1.069,2.402c-0.353,0.794,0.404,1.629,1.228,1.356l6.358-2.108
		"/>
	<polygon fill="#002652" points="63.298,35.168 58.905,44.821 52.084,40.579 52.044,29.955 	"/>
	<path fill="#ED956E" d="M56.38,27.293l0.298-0.115c2.284-0.878,4.848,0.263,5.725,2.547l3.062,7.97l-4.088-0.751
		c-1.67-0.307-3.114-1.347-3.934-2.835l-2.137-3.876C54.698,29.131,55.204,27.745,56.38,27.293z"/>
	<path opacity="0.1" fill="#002652" d="M83.538,43.772l-5.553-1.461c-1.608-0.423-3,1.187-2.349,2.717l2.709,6.369L83.538,43.772z"/>
</g>
</svg>